<?xml version="1.0" encoding="UTF-8"?>
<!DOCTYPE svg PUBLIC "-//W3C//DTD SVG 1.1//EN" "http://www.w3.org/Graphics/SVG/1.1/DTD/svg11.dtd">
<svg xmlns="http://www.w3.org/2000/svg" version="1.1" width="800px" height="647px" style="shape-rendering:geometricPrecision; text-rendering:geometricPrecision; image-rendering:optimizeQuality; fill-rule:evenodd; clip-rule:evenodd" xmlns:xlink="http://www.w3.org/1999/xlink">
<g><path style="opacity:0.955" fill="#fe1300" d="M 276.5,92.5 C 303.088,90.3114 329.088,93.1447 354.5,101C 375.904,110.864 381.738,126.697 372,148.5C 362.794,168.402 349.627,185.235 332.5,199C 305.911,219.968 276.578,236.301 244.5,248C 242.866,248.494 241.199,248.66 239.5,248.5C 239.286,246.856 239.62,245.356 240.5,244C 267.695,225.489 292.529,203.989 315,179.5C 321.387,171.446 327.387,163.112 333,154.5C 336.623,148.591 339.123,142.257 340.5,135.5C 337.663,125.556 330.997,120.056 320.5,119C 294.368,114.503 268.034,112.503 241.5,113C 236.637,112.971 231.97,112.138 227.5,110.5C 226.515,108.902 226.349,107.235 227,105.5C 233.927,101.3 241.427,98.4665 249.5,97C 258.619,95.3435 267.619,93.8435 276.5,92.5 Z"/></g>
<g><path style="opacity:0.965" fill="#fe7f00" d="M 392.5,216.5 C 417.195,215.668 441.529,218.168 465.5,224C 468.912,225.455 472.079,227.288 475,229.5C 476.128,234.712 473.961,237.212 468.5,237C 454.167,237.333 439.833,237.667 425.5,238C 413.4,238.456 401.4,239.789 389.5,242C 382.663,242.943 376.497,245.443 371,249.5C 368.938,254.201 369.605,258.534 373,262.5C 396.969,291.779 419.969,321.779 442,352.5C 458.612,379.327 452.445,398.493 423.5,410C 410.267,414.847 396.6,417.513 382.5,418C 352.967,419.009 323.633,417.009 294.5,412C 288.244,410.526 282.244,408.359 276.5,405.5C 273.563,402.135 274.23,399.635 278.5,398C 309.505,397.042 340.505,395.709 371.5,394C 382.723,393.185 393.723,391.185 404.5,388C 409.602,386.138 412.268,382.472 412.5,377C 411.376,372.246 409.542,367.746 407,363.5C 400.577,354.322 393.911,345.322 387,336.5C 371.858,319.538 357.192,302.204 343,284.5C 321.091,252.469 328.924,231.302 366.5,221C 375.236,219.066 383.903,217.566 392.5,216.5 Z"/></g>
<g><path style="opacity:0.96" fill="#120b80" d="M 211.5,265.5 C 232.129,264.997 252.462,267.163 272.5,272C 285.168,274.582 296.001,280.415 305,289.5C 308.356,296.805 309.356,304.471 308,312.5C 299.429,340.801 283.929,364.635 261.5,384C 213.679,423.566 159.013,448.399 97.5,458.5C 99.858,449.772 103.358,441.439 108,433.5C 127.822,395.167 150.156,358.5 175,323.5C 179.244,318.585 184.077,314.419 189.5,311C 197.008,309.859 199.508,313.026 197,320.5C 179.492,351.514 162.492,382.847 146,414.5C 144.058,417.954 144.558,421.121 147.5,424C 151.594,424.767 155.594,424.434 159.5,423C 191.524,408.96 219.691,389.46 244,364.5C 256.853,350.296 265.353,333.796 269.5,315C 268.958,308.472 265.958,303.472 260.5,300C 250.073,294.98 239.073,291.98 227.5,291C 205.032,288.751 182.532,288.251 160,289.5C 155.455,289.397 150.955,288.897 146.5,288C 141.632,285.523 141.299,282.523 145.5,279C 157.052,274.112 169.052,270.778 181.5,269C 191.629,267.635 201.629,266.468 211.5,265.5 Z"/></g>
<g><path style="opacity:0.948" fill="#120b80" d="M 288.5,456.5 C 295.874,456.384 303.208,456.884 310.5,458C 316.938,458.813 322.938,460.813 328.5,464C 324.011,469.489 319.177,474.656 314,479.5C 286.348,469.164 263.348,475.498 245,498.5C 238.789,508.238 237.789,518.238 242,528.5C 245.092,532.928 249.259,535.761 254.5,537C 270.278,539.603 285.778,538.436 301,533.5C 302.257,533.85 302.591,534.517 302,535.5C 296.789,541.042 291.956,546.875 287.5,553C 267.966,557.983 248.632,557.316 229.5,551C 212.116,542.714 206.283,529.214 212,510.5C 218.829,489.002 232.662,473.835 253.5,465C 264.878,460.404 276.545,457.571 288.5,456.5 Z"/></g>
<g><path style="opacity:0.952" fill="#120b80" d="M 383.5,458.5 C 393.167,458.5 402.833,458.5 412.5,458.5C 417.384,490.471 422.051,522.471 426.5,554.5C 417.5,554.5 408.5,554.5 399.5,554.5C 396.512,530.753 393.012,507.086 389,483.5C 380.833,493.667 372.667,503.833 364.5,514C 371.826,514.5 379.159,514.666 386.5,514.5C 387.047,519.523 387.714,524.523 388.5,529.5C 377.469,530.12 366.469,530.953 355.5,532C 352.833,533.333 350.167,534.667 347.5,536C 342.262,541.815 337.262,547.815 332.5,554C 322.816,554.832 313.149,554.665 303.5,553.5C 330.19,521.814 356.856,490.147 383.5,458.5 Z"/></g>
<g><path style="opacity:0.941" fill="#120b80" d="M 446.5,458.5 C 479.84,458.167 513.173,458.5 546.5,459.5C 542.738,465.431 538.405,470.931 533.5,476C 523.839,476.5 514.172,476.666 504.5,476.5C 495.974,502.244 487.141,527.91 478,553.5C 469.251,554.484 460.418,554.817 451.5,554.5C 459.754,528.737 468.421,503.071 477.5,477.5C 465.185,476.501 452.851,476.168 440.5,476.5C 441.905,470.285 443.905,464.285 446.5,458.5 Z"/></g>
<g><path style="opacity:0.948" fill="#120b80" d="M 564.5,458.5 C 573.506,458.334 582.506,458.5 591.5,459C 580.364,490.743 569.03,522.409 557.5,554C 548.482,554.832 539.482,554.665 530.5,553.5C 541.842,521.805 553.175,490.138 564.5,458.5 Z"/></g>
<g><path style="opacity:0.951" fill="#120b80" d="M 656.5,458.5 C 666.416,458.181 676.25,458.514 686,459.5C 690.975,491.156 695.808,522.822 700.5,554.5C 691.5,554.5 682.5,554.5 673.5,554.5C 669.894,530.529 666.394,506.529 663,482.5C 655.196,493.271 647.029,503.771 638.5,514C 645.826,514.5 653.159,514.666 660.5,514.5C 660.833,519.833 661.167,525.167 661.5,530.5C 652.161,530.334 642.827,530.5 633.5,531C 626.2,532.066 620.367,535.566 616,541.5C 613.217,545.951 610.05,550.117 606.5,554C 596.5,554.667 586.5,554.667 576.5,554C 603.002,522.001 629.668,490.168 656.5,458.5 Z"/></g>
</svg>
