<?xml version="1.0" encoding="UTF-8"?>
<!DOCTYPE svg PUBLIC "-//W3C//DTD SVG 1.1//EN" "http://www.w3.org/Graphics/SVG/1.1/DTD/svg11.dtd">
<svg xmlns="http://www.w3.org/2000/svg" version="1.1" width="88px" height="122px" style="shape-rendering:geometricPrecision; text-rendering:geometricPrecision; image-rendering:optimizeQuality; fill-rule:evenodd; clip-rule:evenodd" xmlns:xlink="http://www.w3.org/1999/xlink">
<g><path style="opacity:0.151" fill="#000000" d="M 16.5,-0.5 C 19.8333,-0.5 23.1667,-0.5 26.5,-0.5C 26.5,7.83333 26.5,16.1667 26.5,24.5C 23.9781,26.0018 23.9781,27.3351 26.5,28.5C 26.4226,29.7498 25.756,30.5831 24.5,31C 19.4564,30.9125 14.4564,31.7458 9.5,33.5C 8.5,34.1667 7.5,34.8333 6.5,35.5C 4.53368,36.2545 4.20035,37.4212 5.5,39C 4.42925,39.8518 3.42925,40.6851 2.5,41.5C 5.28979,42.9671 6.95646,45.3004 7.5,48.5C 10.1173,65.3463 15.1173,81.3463 22.5,96.5C 22.5,96.8333 22.5,97.1667 22.5,97.5C 23.5676,98.4345 24.901,98.7678 26.5,98.5C 26.5,102.5 26.5,106.5 26.5,110.5C 28.8333,110.5 31.1667,110.5 33.5,110.5C 33.1111,113.3 32.6111,115.967 32,118.5C 35.3325,115.998 38.4992,113.332 41.5,110.5C 50.8333,110.5 60.1667,110.5 69.5,110.5C 70.1665,105.651 70.8332,100.651 71.5,95.5C 76.1022,94.8642 80.6022,93.8642 85,92.5C 85.4686,86.8185 85.3019,81.1518 84.5,75.5C 85.29,76.6085 85.79,77.9419 86,79.5C 86.1981,77.6183 86.6981,75.9516 87.5,74.5C 87.5,86.1667 87.5,97.8333 87.5,109.5C 86.5272,110.791 85.5272,110.791 84.5,109.5C 83.8027,111.385 82.8027,111.718 81.5,110.5C 80.8076,111.025 80.3076,111.692 80,112.5C 79.6667,112.167 79.3333,111.833 79,111.5C 77.7726,114.787 76.6059,118.121 75.5,121.5C 55.1667,121.5 34.8333,121.5 14.5,121.5C 13.74,116.711 11.74,112.544 8.5,109C 6.22122,100.112 3.22122,91.2791 -0.5,82.5C -0.5,65.5 -0.5,48.5 -0.5,31.5C 3.39013,30.3037 7.22347,28.9704 11,27.5C 11.3025,23.389 12.1358,19.389 13.5,15.5C 11.7051,9.59773 12.7051,4.2644 16.5,-0.5 Z"/></g>
<g><path style="opacity:0.015" fill="#030303" d="M 71.5,-0.5 C 72.5,-0.5 73.5,-0.5 74.5,-0.5C 75.4363,0.974395 76.7697,1.97439 78.5,2.5C 78.5,3.16667 78.1667,3.5 77.5,3.5C 76.8333,3.5 76.5,3.83333 76.5,4.5C 75.6845,6.30229 74.1845,7.30229 72,7.5C 70.9701,7.16389 70.4701,6.49722 70.5,5.5C 71.4614,3.73535 71.7947,1.73535 71.5,-0.5 Z"/></g>
<g><path style="opacity:1" fill="#0d70b9" d="M 26.5,-0.5 C 40.8333,-0.5 55.1667,-0.5 69.5,-0.5C 69.5,2.5 69.5,5.5 69.5,8.5C 53.6712,10.2659 39.3378,15.5993 26.5,24.5C 26.5,16.1667 26.5,7.83333 26.5,-0.5 Z"/></g>
<g><path style="opacity:0.014" fill="#0e0d0d" d="M 84.5,8.5 C 83.8333,8.5 83.5,8.83333 83.5,9.5C 82.1667,9.83333 82.1667,10.1667 83.5,10.5C 83.5,10.8333 83.5,11.1667 83.5,11.5C 82.391,11.5569 81.391,11.8902 80.5,12.5C 79.0222,12.762 77.6888,12.4287 76.5,11.5C 77.1799,10.1401 77.8466,8.80678 78.5,7.5C 79.1667,7.5 79.5,7.16667 79.5,6.5C 81.8342,5.15919 83.5009,5.82586 84.5,8.5 Z"/></g>
<g><path style="opacity:0.882" fill="#4f4747" d="M 69.5,-0.5 C 69.8333,-0.5 70.1667,-0.5 70.5,-0.5C 70.5,1.5 70.5,3.5 70.5,5.5C 70.4701,6.49722 70.9701,7.16389 72,7.5C 74.1845,7.30229 75.6845,6.30229 76.5,4.5C 77.1667,4.5 77.5,4.16667 77.5,3.5C 78.1667,3.5 78.5,3.16667 78.5,2.5C 79.3023,1.1153 79.9689,1.28197 80.5,3C 80.0109,4.13849 79.6775,5.30516 79.5,6.5C 78.8333,6.5 78.5,6.83333 78.5,7.5C 77.8466,8.80678 77.1799,10.1401 76.5,11.5C 77.6888,12.4287 79.0222,12.762 80.5,12.5C 79.2196,13.9313 77.5529,14.5979 75.5,14.5C 75.8693,12.0065 75.2027,11.3398 73.5,12.5C 73.1788,10.9519 72.1788,10.2852 70.5,10.5C 71.2625,9.73209 72.2625,9.23209 73.5,9C 72.2068,8.50999 70.8734,8.34332 69.5,8.5C 69.5,5.5 69.5,2.5 69.5,-0.5 Z"/></g>
<g><path style="opacity:1" fill="#e76932" d="M 70.5,10.5 C 72.1788,10.2852 73.1788,10.9519 73.5,12.5C 68.4979,21.8355 65.6646,31.8355 65,42.5C 64.6174,43.056 64.1174,43.3893 63.5,43.5C 62.3734,44.1217 61.3734,44.955 60.5,46C 50.0105,48.2563 39.8438,50.7563 30,53.5C 29.5045,51.5273 29.3379,49.5273 29.5,47.5C 29.7671,41.1624 30.1005,34.829 30.5,28.5C 30.2865,26.8561 30.6198,25.3561 31.5,24C 44.4288,18.9695 57.4288,14.4695 70.5,10.5 Z"/></g>
<g><path style="opacity:1" fill="#292223" d="M 69.5,8.5 C 70.8734,8.34332 72.2068,8.50999 73.5,9C 72.2625,9.23209 71.2625,9.73209 70.5,10.5C 57.4288,14.4695 44.4288,18.9695 31.5,24C 30.6198,25.3561 30.2865,26.8561 30.5,28.5C 30.1667,28.5 29.8333,28.5 29.5,28.5C 28.5,25.8333 27.5,25.8333 26.5,28.5C 23.9781,27.3351 23.9781,26.0018 26.5,24.5C 39.3378,15.5993 53.6712,10.2659 69.5,8.5 Z"/></g>
<g><path style="opacity:1" fill="#3786bc" d="M 83.5,11.5 C 84.418,17.7748 84.7513,24.1082 84.5,30.5C 84.5,31.5 84.5,32.5 84.5,33.5C 78.8134,35.4276 73.3134,37.7609 68,40.5C 68.9359,31.4297 71.4359,22.763 75.5,14.5C 77.5529,14.5979 79.2196,13.9313 80.5,12.5C 81.391,11.8902 82.391,11.5569 83.5,11.5 Z"/></g>
<g><path style="opacity:0.165" fill="#333437" d="M 84.5,8.5 C 85.609,8.55688 86.609,8.89022 87.5,9.5C 87.5,17.5 87.5,25.5 87.5,33.5C 86.2719,32.6935 85.2719,31.6935 84.5,30.5C 84.7513,24.1082 84.418,17.7748 83.5,11.5C 83.5,11.1667 83.5,10.8333 83.5,10.5C 83.5,10.1667 83.5,9.83333 83.5,9.5C 84.1667,9.5 84.5,9.16667 84.5,8.5 Z"/></g>
<g><path style="opacity:1" fill="#6d3c2a" d="M 29.5,28.5 C 29.8333,28.5 30.1667,28.5 30.5,28.5C 30.1005,34.829 29.7671,41.1624 29.5,47.5C 29.1667,47.5 28.8333,47.5 28.5,47.5C 28.6527,41.155 28.986,34.8217 29.5,28.5 Z"/></g>
<g><path style="opacity:1" fill="#262120" d="M 75.5,14.5 C 71.4359,22.763 68.9359,31.4297 68,40.5C 73.3134,37.7609 78.8134,35.4276 84.5,33.5C 84.5,32.5 84.5,31.5 84.5,30.5C 85.2719,31.6935 86.2719,32.6935 87.5,33.5C 87.5,46.1667 87.5,58.8333 87.5,71.5C 86.661,70.3588 85.9943,69.0255 85.5,67.5C 86.3218,57.643 86.4885,47.643 86,37.5C 85.7679,38.7375 85.2679,39.7375 84.5,40.5C 77.5116,49.795 70.5116,59.1284 63.5,68.5C 61.6009,71.7452 59.2675,74.7452 56.5,77.5C 57,77.8333 57.5,78.1667 58,78.5C 61.5723,76.4756 65.4057,75.1423 69.5,74.5C 69.385,76.9468 68.385,78.9468 66.5,80.5C 66.1667,80.5 65.8333,80.5 65.5,80.5C 65.5,79.5 65.5,78.5 65.5,77.5C 62.366,78.2407 59.366,79.2407 56.5,80.5C 55.1667,80.5 54.5,79.8333 54.5,78.5C 55.1667,76.8333 55.8333,75.1667 56.5,73.5C 58.9,71.7036 60.5667,69.3702 61.5,66.5C 63.4707,64.1918 65.4707,61.8585 67.5,59.5C 68.9063,59.0269 69.573,58.0269 69.5,56.5C 72.2768,54.0495 74.2768,51.0495 75.5,47.5C 79.8589,43.6777 82.8589,39.3443 84.5,34.5C 78.1152,37.0113 72.1152,40.1779 66.5,44C 65.2506,44.7401 64.2506,44.5735 63.5,43.5C 64.1174,43.3893 64.6174,43.056 65,42.5C 65.6646,31.8355 68.4979,21.8355 73.5,12.5C 75.2027,11.3398 75.8693,12.0065 75.5,14.5 Z"/></g>
<g><path style="opacity:0.898" fill="#7c797a" d="M 9.5,33.5 C 9.88066,34.9311 10.8807,35.7645 12.5,36C 11.4734,36.5133 10.4734,37.0133 9.5,37.5C 9.16667,36.1667 8.83333,36.1667 8.5,37.5C 8.44001,38.0431 8.10667,38.3764 7.5,38.5C 6.61432,37.675 6.28099,36.675 6.5,35.5C 7.5,34.8333 8.5,34.1667 9.5,33.5 Z"/></g>
<g><path style="opacity:1" fill="#303238" d="M 29.5,28.5 C 28.986,34.8217 28.6527,41.155 28.5,47.5C 28.5,50.1667 28.5,52.8333 28.5,55.5C 28.1667,55.5 27.8333,55.5 27.5,55.5C 27.5,52.8333 27.5,50.1667 27.5,47.5C 27.5,42.8333 27.5,38.1667 27.5,33.5C 25.8008,33.3398 24.1341,33.5065 22.5,34C 16.0517,37.2033 9.38504,39.7033 2.5,41.5C 3.42925,40.6851 4.42925,39.8518 5.5,39C 4.20035,37.4212 4.53368,36.2545 6.5,35.5C 6.28099,36.675 6.61432,37.675 7.5,38.5C 8.10667,38.3764 8.44001,38.0431 8.5,37.5C 8.83333,37.5 9.16667,37.5 9.5,37.5C 10.4734,37.0133 11.4734,36.5133 12.5,36C 10.8807,35.7645 9.88066,34.9311 9.5,33.5C 14.4564,31.7458 19.4564,30.9125 24.5,31C 25.756,30.5831 26.4226,29.7498 26.5,28.5C 27.5,25.8333 28.5,25.8333 29.5,28.5 Z"/></g>
<g><path style="opacity:1" fill="#5c96c7" d="M 27.5,47.5 C 26.8333,53.1667 26.1667,58.8333 25.5,64.5C 25.762,63.0222 25.4287,61.6888 24.5,60.5C 21.5,61.1667 18.5,61.8333 15.5,62.5C 14.056,61.019 13.3894,61.3523 13.5,63.5C 11.6577,58.4937 9.65775,53.4937 7.5,48.5C 6.95646,45.3004 5.28979,42.9671 2.5,41.5C 9.38504,39.7033 16.0517,37.2033 22.5,34C 24.1341,33.5065 25.8008,33.3398 27.5,33.5C 27.5,38.1667 27.5,42.8333 27.5,47.5 Z"/></g>
<g><path style="opacity:1" fill="#e87947" d="M 75.5,47.5 C 70.7847,47.506 66.118,48.006 61.5,49C 51.7827,52.6279 41.7827,55.1279 31.5,56.5C 30.4163,56.315 29.4163,55.9817 28.5,55.5C 28.5,52.8333 28.5,50.1667 28.5,47.5C 28.8333,47.5 29.1667,47.5 29.5,47.5C 29.3379,49.5273 29.5045,51.5273 30,53.5C 39.8438,50.7563 50.0105,48.2563 60.5,46C 61.3734,44.955 62.3734,44.1217 63.5,43.5C 64.2506,44.5735 65.2506,44.7401 66.5,44C 72.1152,40.1779 78.1152,37.0113 84.5,34.5C 82.8589,39.3443 79.8589,43.6777 75.5,47.5 Z"/></g>
<g><path style="opacity:1" fill="#89add3" d="M 84.5,40.5 C 84.5,48.5 84.5,56.5 84.5,64.5C 83.71,63.3915 83.21,62.0581 83,60.5C 82.7787,63.9431 81.7787,64.2764 80,61.5C 76.8892,62.9611 73.7226,63.2945 70.5,62.5C 69.0118,64.1493 68.0118,66.1493 67.5,68.5C 66.2736,67.6371 64.9403,67.6371 63.5,68.5C 70.5116,59.1284 77.5116,49.795 84.5,40.5 Z"/></g>
<g><path style="opacity:1" fill="#ef9063" d="M 75.5,47.5 C 74.2768,51.0495 72.2768,54.0495 69.5,56.5C 69.0377,55.1201 68.0377,54.4534 66.5,54.5C 56.7278,57.6101 46.7278,59.4435 36.5,60C 34.324,60.1629 32.4907,60.9963 31,62.5C 30.6667,61.8333 30.3333,61.1667 30,60.5C 29.5045,62.4727 29.3379,64.4727 29.5,66.5C 28.5184,63.0381 28.185,59.3714 28.5,55.5C 29.4163,55.9817 30.4163,56.315 31.5,56.5C 41.7827,55.1279 51.7827,52.6279 61.5,49C 66.118,48.006 70.7847,47.506 75.5,47.5 Z"/></g>
<g><path style="opacity:1" fill="#f0a17a" d="M 69.5,56.5 C 69.573,58.0269 68.9063,59.0269 67.5,59.5C 67.631,58.7611 67.4643,58.0944 67,57.5C 65.9025,58.9675 64.4025,59.8008 62.5,60C 50.9347,59.6396 40.1014,62.1396 30,67.5C 29.6012,67.2716 29.4346,66.9382 29.5,66.5C 29.3379,64.4727 29.5045,62.4727 30,60.5C 30.3333,61.1667 30.6667,61.8333 31,62.5C 32.4907,60.9963 34.324,60.1629 36.5,60C 46.7278,59.4435 56.7278,57.6101 66.5,54.5C 68.0377,54.4534 69.0377,55.1201 69.5,56.5 Z"/></g>
<g><path style="opacity:1" fill="#5a6d83" d="M 27.5,47.5 C 27.5,50.1667 27.5,52.8333 27.5,55.5C 27.7335,60.8947 27.4002,66.228 26.5,71.5C 26.5368,69.2797 26.2035,66.9464 25.5,64.5C 26.1667,58.8333 26.8333,53.1667 27.5,47.5 Z"/></g>
<g><path style="opacity:1" fill="#e9ac83" d="M 27.5,55.5 C 27.8333,55.5 28.1667,55.5 28.5,55.5C 28.185,59.3714 28.5184,63.0381 29.5,66.5C 29.4346,66.9382 29.6012,67.2716 30,67.5C 40.1014,62.1396 50.9347,59.6396 62.5,60C 64.4025,59.8008 65.9025,58.9675 67,57.5C 67.4643,58.0944 67.631,58.7611 67.5,59.5C 65.4707,61.8585 63.4707,64.1918 61.5,66.5C 60.2571,63.8937 58.9238,63.8937 57.5,66.5C 56.914,66.2907 56.414,65.9574 56,65.5C 53.7415,66.3804 51.5748,67.3804 49.5,68.5C 50.7298,66.7028 51.3964,64.7028 51.5,62.5C 43.1786,65.8301 34.8453,69.1634 26.5,72.5C 26.5,72.1667 26.5,71.8333 26.5,71.5C 27.4002,66.228 27.7335,60.8947 27.5,55.5 Z"/></g>
<g><path style="opacity:1" fill="#9fc0de" d="M 84.5,64.5 C 84.5,68.1667 84.5,71.8333 84.5,75.5C 84.1667,75.5 83.8333,75.5 83.5,75.5C 83.6567,74.1266 83.49,72.7932 83,71.5C 82.3333,72.8333 81.6667,72.8333 81,71.5C 80.6667,72.8333 80.3333,74.1667 80,75.5C 79.6667,75.1667 79.3333,74.8333 79,74.5C 76.2016,76.7989 73.5349,76.7989 71,74.5C 71.1449,77.9233 69.6449,79.9233 66.5,80.5C 68.385,78.9468 69.385,76.9468 69.5,74.5C 65.4057,75.1423 61.5723,76.4756 58,78.5C 57.5,78.1667 57,77.8333 56.5,77.5C 59.2675,74.7452 61.6009,71.7452 63.5,68.5C 64.9403,67.6371 66.2736,67.6371 67.5,68.5C 68.0118,66.1493 69.0118,64.1493 70.5,62.5C 73.7226,63.2945 76.8892,62.9611 80,61.5C 81.7787,64.2764 82.7787,63.9431 83,60.5C 83.21,62.0581 83.71,63.3915 84.5,64.5 Z"/></g>
<g><path style="opacity:0.733" fill="#3d3e43" d="M 87.5,71.5 C 87.5,72.5 87.5,73.5 87.5,74.5C 86.6981,75.9516 86.1981,77.6183 86,79.5C 85.79,77.9419 85.29,76.6085 84.5,75.5C 84.5,71.8333 84.5,68.1667 84.5,64.5C 84.5,56.5 84.5,48.5 84.5,40.5C 85.2679,39.7375 85.7679,38.7375 86,37.5C 86.4885,47.643 86.3218,57.643 85.5,67.5C 85.9943,69.0255 86.661,70.3588 87.5,71.5 Z"/></g>
<g><path style="opacity:1" fill="#f4cd6f" d="M 61.5,66.5 C 60.5667,69.3702 58.9,71.7036 56.5,73.5C 55.2106,75.248 53.7106,75.5814 52,74.5C 49.0357,75.2098 46.2024,76.2098 43.5,77.5C 44.7589,73.9754 46.7589,70.9754 49.5,68.5C 51.5748,67.3804 53.7415,66.3804 56,65.5C 56.414,65.9574 56.914,66.2907 57.5,66.5C 58.9238,63.8937 60.2571,63.8937 61.5,66.5 Z"/></g>
<g><path style="opacity:1" fill="#2f2a29" d="M 49.5,68.5 C 46.7589,70.9754 44.7589,73.9754 43.5,77.5C 41.4083,80.681 39.075,83.681 36.5,86.5C 38.7956,80.6816 41.7956,75.1816 45.5,70C 45.3333,69.5 45.1667,69 45,68.5C 41.2454,70.6275 37.4121,72.6275 33.5,74.5C 32.8933,74.3764 32.56,74.0431 32.5,73.5C 36.373,71.8461 36.0397,71.3461 31.5,72C 29.9069,72.9487 28.5736,74.1154 27.5,75.5C 21.2034,77.9003 20.8701,76.9003 26.5,72.5C 34.8453,69.1634 43.1786,65.8301 51.5,62.5C 51.3964,64.7028 50.7298,66.7028 49.5,68.5 Z"/></g>
<g><path style="opacity:0.545" fill="#2b292a" d="M 7.5,48.5 C 9.65775,53.4937 11.6577,58.4937 13.5,63.5C 14.6367,67.4172 15.47,71.4172 16,75.5C 18.6397,79.9349 20.473,84.6015 21.5,89.5C 21.4772,91.5996 22.1439,93.4329 23.5,95C 23.4301,95.7648 23.0967,96.2648 22.5,96.5C 15.1173,81.3463 10.1173,65.3463 7.5,48.5 Z"/></g>
<g><path style="opacity:1" fill="#99bbda" d="M 25.5,64.5 C 26.2035,66.9464 26.5368,69.2797 26.5,71.5C 26.5,71.8333 26.5,72.1667 26.5,72.5C 20.8701,76.9003 21.2034,77.9003 27.5,75.5C 29.2838,75.1075 30.9505,74.4408 32.5,73.5C 32.56,74.0431 32.8933,74.3764 33.5,74.5C 37.4121,72.6275 41.2454,70.6275 45,68.5C 45.1667,69 45.3333,69.5 45.5,70C 41.7956,75.1816 38.7956,80.6816 36.5,86.5C 35.8333,86.5 35.1667,86.5 34.5,86.5C 34.7163,84.3193 33.883,82.6526 32,81.5C 29.3787,83.0003 26.712,83.3337 24,82.5C 22.4766,84.5692 21.6432,86.9026 21.5,89.5C 20.473,84.6015 18.6397,79.9349 16,75.5C 15.47,71.4172 14.6367,67.4172 13.5,63.5C 13.3894,61.3523 14.056,61.019 15.5,62.5C 18.5,61.8333 21.5,61.1667 24.5,60.5C 25.4287,61.6888 25.762,63.0222 25.5,64.5 Z"/></g>
<g><path style="opacity:1" fill="#c6a97b" d="M 32.5,73.5 C 30.9505,74.4408 29.2838,75.1075 27.5,75.5C 28.5736,74.1154 29.9069,72.9487 31.5,72C 36.0397,71.3461 36.373,71.8461 32.5,73.5 Z"/></g>
<g><path style="opacity:1" fill="#f4e33f" d="M 56.5,73.5 C 55.8333,75.1667 55.1667,76.8333 54.5,78.5C 53.596,79.209 53.2627,80.209 53.5,81.5C 54.791,81.7373 55.791,81.404 56.5,80.5C 59.366,79.2407 62.366,78.2407 65.5,77.5C 65.5,78.5 65.5,79.5 65.5,80.5C 62.1996,82.6311 59.033,84.9644 56,87.5C 51.0482,94.9494 45.5482,101.949 39.5,108.5C 38.5655,107.432 38.2322,106.099 38.5,104.5C 40.1667,101.167 41.8333,97.8333 43.5,94.5C 45.4531,91.76 45.7864,88.76 44.5,85.5C 43.5713,86.6888 43.238,88.0222 43.5,89.5C 42.209,89.2627 41.209,89.596 40.5,90.5C 39.391,90.5569 38.391,90.8902 37.5,91.5C 36.6236,91.6309 35.9569,91.2975 35.5,90.5C 36.2458,89.2638 36.5792,87.9305 36.5,86.5C 39.075,83.681 41.4083,80.681 43.5,77.5C 46.2024,76.2098 49.0357,75.2098 52,74.5C 53.7106,75.5814 55.2106,75.248 56.5,73.5 Z"/></g>
<g><path style="opacity:1" fill="#897a2f" d="M 54.5,78.5 C 54.5,79.8333 55.1667,80.5 56.5,80.5C 55.791,81.404 54.791,81.7373 53.5,81.5C 53.2627,80.209 53.596,79.209 54.5,78.5 Z"/></g>
<g><path style="opacity:1" fill="#83c3e3" d="M 83.5,75.5 C 83.5,80.8333 83.5,86.1667 83.5,91.5C 77.8355,92.1112 72.1688,92.7779 66.5,93.5C 62.6347,92.5854 58.9681,92.252 55.5,92.5C 58.8333,88.5 62.1667,84.5 65.5,80.5C 65.8333,80.5 66.1667,80.5 66.5,80.5C 69.6449,79.9233 71.1449,77.9233 71,74.5C 73.5349,76.7989 76.2016,76.7989 79,74.5C 79.3333,74.8333 79.6667,75.1667 80,75.5C 80.3333,74.1667 80.6667,72.8333 81,71.5C 81.6667,72.8333 82.3333,72.8333 83,71.5C 83.49,72.7932 83.6567,74.1266 83.5,75.5 Z"/></g>
<g><path style="opacity:1" fill="#332e28" d="M 65.5,80.5 C 62.1667,84.5 58.8333,88.5 55.5,92.5C 54.5116,93.795 53.5116,95.1283 52.5,96.5C 48.7899,100.208 45.4566,104.208 42.5,108.5C 41.6618,108.842 41.3284,109.508 41.5,110.5C 38.4992,113.332 35.3325,115.998 32,118.5C 32.6111,115.967 33.1111,113.3 33.5,110.5C 34.1667,110.5 34.5,110.167 34.5,109.5C 34.8333,109.5 35.1667,109.5 35.5,109.5C 35.1854,111.226 35.0187,112.893 35,114.5C 36.332,112.34 37.832,110.34 39.5,108.5C 45.5482,101.949 51.0482,94.9494 56,87.5C 59.033,84.9644 62.1996,82.6311 65.5,80.5 Z"/></g>
<g><path style="opacity:1" fill="#514b31" d="M 43.5,94.5 C 43.6716,93.5084 43.3382,92.8417 42.5,92.5C 42.5,91.1667 41.8333,90.5 40.5,90.5C 41.209,89.596 42.209,89.2627 43.5,89.5C 43.238,88.0222 43.5713,86.6888 44.5,85.5C 45.7864,88.76 45.4531,91.76 43.5,94.5 Z"/></g>
<g><path style="opacity:1" fill="#3d3b32" d="M 34.5,86.5 C 35.1667,86.5 35.8333,86.5 36.5,86.5C 36.5792,87.9305 36.2458,89.2638 35.5,90.5C 35.9569,91.2975 36.6236,91.6309 37.5,91.5C 36.171,93.3773 34.8377,93.5439 33.5,92C 34.2335,90.2341 34.5668,88.4008 34.5,86.5 Z"/></g>
<g><path style="opacity:1" fill="#80c1e0" d="M 34.5,86.5 C 34.5668,88.4008 34.2335,90.2341 33.5,92C 34.8377,93.5439 36.171,93.3773 37.5,91.5C 38.391,90.8902 39.391,90.5569 40.5,90.5C 41.8333,90.5 42.5,91.1667 42.5,92.5C 41.2562,95.5426 38.9229,96.876 35.5,96.5C 31.1756,96.9272 26.8422,97.2605 22.5,97.5C 22.5,97.1667 22.5,96.8333 22.5,96.5C 23.0967,96.2648 23.4301,95.7648 23.5,95C 22.1439,93.4329 21.4772,91.5996 21.5,89.5C 21.6432,86.9026 22.4766,84.5692 24,82.5C 26.712,83.3337 29.3787,83.0003 32,81.5C 33.883,82.6526 34.7163,84.3193 34.5,86.5 Z"/></g>
<g><path style="opacity:1" fill="#2b3037" d="M 83.5,75.5 C 83.8333,75.5 84.1667,75.5 84.5,75.5C 85.3019,81.1518 85.4686,86.8185 85,92.5C 80.6022,93.8642 76.1022,94.8642 71.5,95.5C 70.8332,100.651 70.1665,105.651 69.5,110.5C 69.5,110.167 69.5,109.833 69.5,109.5C 69.5,104.833 69.5,100.167 69.5,95.5C 63.8044,95.447 58.1377,95.7803 52.5,96.5C 53.5116,95.1283 54.5116,93.795 55.5,92.5C 58.9681,92.252 62.6347,92.5854 66.5,93.5C 72.1688,92.7779 77.8355,92.1112 83.5,91.5C 83.5,86.1667 83.5,80.8333 83.5,75.5 Z"/></g>
<g><path style="opacity:1" fill="#222329" d="M 42.5,92.5 C 43.3382,92.8417 43.6716,93.5084 43.5,94.5C 41.8333,97.8333 40.1667,101.167 38.5,104.5C 37.6873,106.261 36.6873,107.928 35.5,109.5C 36.0351,105.563 37.3685,101.896 39.5,98.5C 38.675,97.6143 37.675,97.281 36.5,97.5C 35.8333,97.5 35.5,97.1667 35.5,96.5C 38.9229,96.876 41.2562,95.5426 42.5,92.5 Z"/></g>
<g><path style="opacity:1" fill="#036fbb" d="M 36.5,97.5 C 37.675,97.281 38.675,97.6143 39.5,98.5C 37.3685,101.896 36.0351,105.563 35.5,109.5C 35.1667,109.5 34.8333,109.5 34.5,109.5C 32.1667,109.5 29.8333,109.5 27.5,109.5C 27.5,105.833 27.5,102.167 27.5,98.5C 30.7131,98.81 33.7131,98.4767 36.5,97.5 Z"/></g>
<g><path style="opacity:1" fill="#0270bc" d="M 69.5,109.5 C 60.3178,109.827 51.3178,109.493 42.5,108.5C 45.4566,104.208 48.7899,100.208 52.5,96.5C 58.1377,95.7803 63.8044,95.447 69.5,95.5C 69.5,100.167 69.5,104.833 69.5,109.5 Z"/></g>
<g><path style="opacity:0.569" fill="#2c4f6c" d="M 35.5,96.5 C 35.5,97.1667 35.8333,97.5 36.5,97.5C 33.7131,98.4767 30.7131,98.81 27.5,98.5C 27.5,102.167 27.5,105.833 27.5,109.5C 29.8333,109.5 32.1667,109.5 34.5,109.5C 34.5,110.167 34.1667,110.5 33.5,110.5C 31.1667,110.5 28.8333,110.5 26.5,110.5C 26.5,106.5 26.5,102.5 26.5,98.5C 24.901,98.7678 23.5676,98.4345 22.5,97.5C 26.8422,97.2605 31.1756,96.9272 35.5,96.5 Z"/></g>
<g><path style="opacity:0.769" fill="#063f6e" d="M 42.5,108.5 C 51.3178,109.493 60.3178,109.827 69.5,109.5C 69.5,109.833 69.5,110.167 69.5,110.5C 60.1667,110.5 50.8333,110.5 41.5,110.5C 41.3284,109.508 41.6618,108.842 42.5,108.5 Z"/></g>
<g><path style="opacity:1" fill="#b3a73d" d="M 38.5,104.5 C 38.2322,106.099 38.5655,107.432 39.5,108.5C 37.832,110.34 36.332,112.34 35,114.5C 35.0187,112.893 35.1854,111.226 35.5,109.5C 36.6873,107.928 37.6873,106.261 38.5,104.5 Z"/></g>
</svg>
