<?xml version="1.0" encoding="UTF-8"?>
<!DOCTYPE svg PUBLIC "-//W3C//DTD SVG 1.1//EN" "http://www.w3.org/Graphics/SVG/1.1/DTD/svg11.dtd">
<svg xmlns="http://www.w3.org/2000/svg" version="1.1" width="2400px" height="2400px" style="shape-rendering:geometricPrecision; text-rendering:geometricPrecision; image-rendering:optimizeQuality; fill-rule:evenodd; clip-rule:evenodd" xmlns:xlink="http://www.w3.org/1999/xlink">
<g><path style="opacity:0.998" fill="#000000" d="M 1266.5,1257.5 C 1336.12,1225.13 1408.45,1200.63 1483.5,1184C 1510.24,1178.29 1536.9,1172.79 1563.5,1167.5C 1564.5,1035.67 1564.83,903.668 1564.5,771.5C 1561.61,771.194 1558.95,771.527 1556.5,772.5C 1478.39,779.034 1403.06,797.201 1330.5,827C 1308.85,835.827 1287.51,845.327 1266.5,855.5C 1266.5,812.5 1266.5,769.5 1266.5,726.5C 1360.53,680.437 1459.7,652.103 1564,641.5C 1564.5,503.5 1564.67,365.5 1564.5,227.5C 1517.96,230.697 1472.3,238.863 1427.5,252C 1372.63,268.789 1318.96,288.622 1266.5,311.5C 1266.17,250.496 1266.5,189.496 1267.5,128.5C 1566.69,-1.54503 1863.52,3.45497 2158,143.5C 2158.5,578.167 2158.67,1012.83 2158.5,1447.5C 2084.55,1411.7 2007.88,1382.87 1928.5,1361C 1813.86,1329.23 1697.52,1320.57 1579.5,1335C 1495.08,1346.6 1414.42,1370.6 1337.5,1407C 1313.42,1418.7 1289.76,1430.87 1266.5,1443.5C 1266.5,1381.5 1266.5,1319.5 1266.5,1257.5 Z"/></g>
<g><path style="opacity:0.964" fill="#000000" d="M 349.5,140.5 C 350.497,160.66 350.83,180.993 350.5,201.5C 330.299,209.598 310.299,218.265 290.5,227.5C 289.167,208.833 289.167,190.167 290.5,171.5C 310.386,161.392 330.053,151.059 349.5,140.5 Z"/></g>
<g><path style="opacity:0.985" fill="#000000" d="M 1239.5,140.5 C 1240.67,193.998 1240.83,247.665 1240,301.5C 1184.82,330.755 1129.49,359.755 1074,388.5C 1073.33,332.833 1073.33,277.167 1074,221.5C 1129.21,194.387 1184.38,167.387 1239.5,140.5 Z"/></g>
<g><path style="opacity:0.977" fill="#000000" d="M 498.5,169.5 C 499.833,182.817 500.499,196.483 500.5,210.5C 500.333,224.167 500.167,237.833 500,251.5C 474.745,266.546 449.245,281.212 423.5,295.5C 422.333,268.84 422.167,242.173 423,215.5C 448.338,200.303 473.505,184.97 498.5,169.5 Z"/></g>
<g><path style="opacity:0.983" fill="#000000" d="M 1038.5,201.5 C 1039.5,201.5 1040.5,201.5 1041.5,201.5C 1041.83,251.838 1041.5,302.171 1040.5,352.5C 989.345,377.911 938.345,403.578 887.5,429.5C 886.167,379.167 886.167,328.833 887.5,278.5C 938.05,253.059 988.384,227.392 1038.5,201.5 Z"/></g>
<g><path style="opacity:1" fill="#89bd6b" d="M 1681.5,632.5 C 1681.5,491.167 1681.5,349.833 1681.5,208.5C 1684.06,208.802 1686.39,208.468 1688.5,207.5C 1761.14,201.59 1832.48,208.757 1902.5,229C 1927.12,236.817 1951.45,245.317 1975.5,254.5C 1975.5,394.167 1975.5,533.833 1975.5,673.5C 1930.13,657.408 1883.8,644.908 1836.5,636C 1827.52,634.812 1818.52,633.812 1809.5,633C 1766.83,632.5 1724.17,632.333 1681.5,632.5 Z"/></g>
<g><path style="opacity:1" fill="#7aa960" d="M 1688.5,207.5 C 1686.39,208.468 1684.06,208.802 1681.5,208.5C 1681.5,349.833 1681.5,491.167 1681.5,632.5C 1680.5,491.001 1680.17,349.334 1680.5,207.5C 1683.17,207.5 1685.83,207.5 1688.5,207.5 Z"/></g>
<g><path style="opacity:0.983" fill="#000000" d="M 850.5,210.5 C 851.833,232.156 852.5,254.156 852.5,276.5C 852.333,298.5 852.167,320.5 852,342.5C 808.699,363.901 765.199,384.901 721.5,405.5C 720.167,360.833 720.167,316.167 721.5,271.5C 764.712,251.392 807.712,231.058 850.5,210.5 Z"/></g>
<g><path style="opacity:0.978" fill="#000000" d="M 673.5,227.5 C 674.664,260.331 674.831,293.331 674,326.5C 638.445,343.196 602.611,359.196 566.5,374.5C 566.167,342.493 566.5,310.493 567.5,278.5C 602.936,261.479 638.27,244.479 673.5,227.5 Z"/></g>
<g><path style="opacity:0.999" fill="#d87840" d="M 1266.5,726.5 C 1265.17,588.167 1265.17,449.833 1266.5,311.5C 1318.96,288.622 1372.63,268.789 1427.5,252C 1472.3,238.863 1517.96,230.697 1564.5,227.5C 1564.67,365.5 1564.5,503.5 1564,641.5C 1459.7,652.103 1360.53,680.437 1266.5,726.5 Z"/></g>
<g><path style="opacity:0.985" fill="#000000" d="M 1238.5,329.5 C 1239.83,356.158 1240.5,383.158 1240.5,410.5C 1240.33,437.5 1240.17,464.5 1240,491.5C 1184.91,520.627 1129.75,549.627 1074.5,578.5C 1073.33,522.836 1073.17,467.17 1074,411.5C 1128.97,384.264 1183.8,356.931 1238.5,329.5 Z"/></g>
<g><path style="opacity:0.975" fill="#d97840" d="M 348.5,332.5 C 349.832,342.144 350.499,352.144 350.5,362.5C 350.167,372.5 349.833,382.5 349.5,392.5C 329.701,401.735 309.701,410.402 289.5,418.5C 289.167,399.488 289.5,380.488 290.5,361.5C 309.925,351.787 329.259,342.121 348.5,332.5 Z"/></g>
<g><path style="opacity:0.986" fill="#d97840" d="M 498.5,360.5 C 499.833,374.15 500.499,388.15 500.5,402.5C 500.333,416.5 500.167,430.5 500,444.5C 474.333,458.833 448.667,473.167 423,487.5C 422.167,460.494 422.333,433.494 423.5,406.5C 448.731,391.392 473.731,376.059 498.5,360.5 Z"/></g>
<g><path style="opacity:0.988" fill="#d97841" d="M 1039.5,392.5 C 1040.83,417.324 1041.5,442.491 1041.5,468C 1041.33,493.167 1041.17,518.333 1041,543.5C 989.637,569.598 938.137,595.265 886.5,620.5C 886.167,570.162 886.5,519.829 887.5,469.5C 938.539,444.314 989.206,418.648 1039.5,392.5 Z"/></g>
<g><path style="opacity:0.988" fill="#d97840" d="M 851.5,401.5 C 852.665,445.998 852.831,490.665 852,535.5C 808.333,556.5 764.667,577.5 721,598.5C 720.167,553.83 720.333,509.163 721.5,464.5C 764.925,443.453 808.258,422.453 851.5,401.5 Z"/></g>
<g><path style="opacity:0.985" fill="#d97841" d="M 672.5,419.5 C 673.833,435.653 674.5,452.153 674.5,469C 674.167,485.5 673.833,502 673.5,518.5C 637.941,534.407 602.441,550.407 567,566.5C 566.5,534.168 566.333,501.835 566.5,469.5C 602.133,453.349 637.467,436.682 672.5,419.5 Z"/></g>
<g><path style="opacity:0.975" fill="#d97841" d="M 349.5,515.5 C 350.662,535.329 350.829,555.329 350,575.5C 330.097,584.522 309.93,592.855 289.5,600.5C 289.167,581.488 289.5,562.488 290.5,543.5C 310.379,534.392 330.045,525.058 349.5,515.5 Z"/></g>
<g><path style="opacity:0.985" fill="#000000" d="M 1238.5,518.5 C 1239.83,545.158 1240.5,572.158 1240.5,599.5C 1240.17,626.5 1239.83,653.5 1239.5,680.5C 1184.66,709.089 1129.66,737.422 1074.5,765.5C 1073.17,709.833 1073.17,654.167 1074.5,598.5C 1129.26,571.786 1183.92,545.12 1238.5,518.5 Z"/></g>
<g><path style="opacity:0.986" fill="#d97840" d="M 498.5,542.5 C 499.833,556.15 500.499,570.15 500.5,584.5C 500.333,598.5 500.167,612.5 500,626.5C 474.333,641.167 448.667,655.833 423,670.5C 422.167,643.161 422.333,615.827 423.5,588.5C 448.731,573.392 473.731,558.059 498.5,542.5 Z"/></g>
<g><path style="opacity:0.988" fill="#d97841" d="M 1039.5,574.5 C 1040.83,599.324 1041.5,624.491 1041.5,650C 1041.33,675.167 1041.17,700.333 1041,725.5C 989.637,751.598 938.137,777.265 886.5,802.5C 886.167,752.162 886.5,701.829 887.5,651.5C 938.539,626.314 989.206,600.648 1039.5,574.5 Z"/></g>
<g><path style="opacity:0.988" fill="#d97841" d="M 850.5,585.5 C 851.833,607.156 852.5,629.156 852.5,651.5C 852.333,673.5 852.167,695.5 852,717.5C 808.333,738.5 764.667,759.5 721,780.5C 720.167,735.83 720.333,691.163 721.5,646.5C 764.712,626.392 807.712,606.058 850.5,585.5 Z"/></g>
<g><path style="opacity:0.984" fill="#d97841" d="M 673.5,599.5 C 674.83,633.002 674.83,666.669 673.5,700.5C 637.941,716.407 602.441,732.407 567,748.5C 566.167,716.162 566.333,683.828 567.5,651.5C 603.171,634.664 638.504,617.331 673.5,599.5 Z"/></g>
<g><path style="opacity:0.965" fill="#000000" d="M 348.5,704.5 C 349.832,714.144 350.499,724.144 350.5,734.5C 350.167,744.5 349.833,754.5 349.5,764.5C 329.701,773.735 309.701,782.402 289.5,790.5C 289.167,771.488 289.5,752.488 290.5,733.5C 309.925,723.787 329.259,714.121 348.5,704.5 Z"/></g>
<g><path style="opacity:0.985" fill="#000000" d="M 1238.5,708.5 C 1239.83,734.825 1240.5,761.492 1240.5,788.5C 1240.33,815.167 1240.17,841.833 1240,868.5C 1184.91,897.627 1129.75,926.627 1074.5,955.5C 1073.17,899.833 1073.17,844.167 1074.5,788.5C 1129.26,761.786 1183.92,735.12 1238.5,708.5 Z"/></g>
<g><path style="opacity:0.977" fill="#000000" d="M 498.5,732.5 C 499.833,746.15 500.499,760.15 500.5,774.5C 500.333,788.5 500.167,802.5 500,816.5C 474.333,831.167 448.667,845.833 423,860.5C 422.167,833.161 422.333,805.827 423.5,778.5C 448.731,763.392 473.731,748.059 498.5,732.5 Z"/></g>
<g><path style="opacity:1" fill="#f1c92f" d="M 1974.5,792.5 C 1974.83,930.001 1974.5,1067.33 1973.5,1204.5C 1921.01,1187.3 1867.34,1174.8 1812.5,1167C 1770.95,1162.58 1729.28,1160.75 1687.5,1161.5C 1685.5,1161.5 1683.5,1161.5 1681.5,1161.5C 1681.5,1025.83 1681.5,890.167 1681.5,754.5C 1682.79,754.737 1683.79,754.404 1684.5,753.5C 1784.34,743.143 1881,756.143 1974.5,792.5 Z"/></g>
<g><path style="opacity:1" fill="#d6b32a" d="M 1684.5,753.5 C 1683.79,754.404 1682.79,754.737 1681.5,754.5C 1681.5,890.167 1681.5,1025.83 1681.5,1161.5C 1683.5,1161.5 1685.5,1161.5 1687.5,1161.5C 1685.39,1162.47 1683.06,1162.8 1680.5,1162.5C 1680.5,1026.17 1680.5,889.833 1680.5,753.5C 1681.83,753.5 1683.17,753.5 1684.5,753.5 Z"/></g>
<g><path style="opacity:0.983" fill="#000000" d="M 1039.5,764.5 C 1040.83,789.324 1041.5,814.491 1041.5,840C 1041.33,865.167 1041.17,890.333 1041,915.5C 989.912,941.961 938.745,968.294 887.5,994.5C 886.167,943.5 886.167,892.5 887.5,841.5C 938.539,816.314 989.206,790.648 1039.5,764.5 Z"/></g>
<g><path style="opacity:0.999" fill="#4e88c7" d="M 1556.5,772.5 C 1558.83,772.5 1561.17,772.5 1563.5,772.5C 1563.5,904.167 1563.5,1035.83 1563.5,1167.5C 1536.9,1172.79 1510.24,1178.29 1483.5,1184C 1408.45,1200.63 1336.12,1225.13 1266.5,1257.5C 1265.17,1123.5 1265.17,989.5 1266.5,855.5C 1287.51,845.327 1308.85,835.827 1330.5,827C 1403.06,797.201 1478.39,779.034 1556.5,772.5 Z"/></g>
<g><path style="opacity:1" fill="#355d88" d="M 1556.5,772.5 C 1558.95,771.527 1561.61,771.194 1564.5,771.5C 1564.83,903.668 1564.5,1035.67 1563.5,1167.5C 1563.5,1035.83 1563.5,904.167 1563.5,772.5C 1561.17,772.5 1558.83,772.5 1556.5,772.5 Z"/></g>
<g><path style="opacity:0.983" fill="#000000" d="M 850.5,775.5 C 851.833,797.156 852.5,819.156 852.5,841.5C 852.333,863.5 852.167,885.5 852,907.5C 808.454,928.356 764.954,949.356 721.5,970.5C 720.167,925.833 720.167,881.167 721.5,836.5C 764.712,816.392 807.712,796.058 850.5,775.5 Z"/></g>
<g><path style="opacity:0.978" fill="#000000" d="M 672.5,791.5 C 673.833,807.653 674.5,824.153 674.5,841C 674.167,857.5 673.833,874 673.5,890.5C 637.941,906.407 602.441,922.407 567,938.5C 566.333,906.5 566.333,874.5 567,842.5C 602.181,825.325 637.348,808.325 672.5,791.5 Z"/></g>
<g><path style="opacity:1" fill="#7c6818" d="M 1974.5,792.5 C 1975.83,930.001 1975.83,1067.67 1974.5,1205.5C 1973.89,1205.38 1973.56,1205.04 1973.5,1204.5C 1974.5,1067.33 1974.83,930.001 1974.5,792.5 Z"/></g>
<g><path style="opacity:0.985" fill="#000000" d="M 1238.5,894.5 C 1239.83,921.158 1240.5,948.158 1240.5,975.5C 1240.17,1002.5 1239.83,1029.5 1239.5,1056.5C 1184.66,1085.09 1129.66,1113.42 1074.5,1141.5C 1073.17,1086.17 1073.17,1030.83 1074.5,975.5C 1129.5,948.997 1184.17,921.997 1238.5,894.5 Z"/></g>
<g><path style="opacity:0.982" fill="#4f89c8" d="M 347.5,897.5 C 348.5,897.5 349.5,897.5 350.5,897.5C 350.667,916.836 350.5,936.17 350,955.5C 330.241,964.629 310.408,973.629 290.5,982.5C 289.334,963.842 289.167,945.176 290,926.5C 309.43,917.202 328.596,907.535 347.5,897.5 Z"/></g>
<g><path style="opacity:0.99" fill="#4f89c8" d="M 498.5,925.5 C 499.833,938.983 500.499,952.817 500.5,967C 500.167,980.833 499.833,994.667 499.5,1008.5C 474.167,1022.83 448.833,1037.17 423.5,1051.5C 422.333,1024.84 422.167,998.173 423,971.5C 448.338,956.303 473.505,940.97 498.5,925.5 Z"/></g>
<g><path style="opacity:0.994" fill="#4f89c8" d="M 1040.5,955.5 C 1041.67,1005.67 1041.83,1056 1041,1106.5C 989.912,1132.96 938.745,1159.29 887.5,1185.5C 886.333,1134.84 886.167,1084.17 887,1033.5C 938.15,1007.34 989.316,981.342 1040.5,955.5 Z"/></g>
<g><path style="opacity:0.991" fill="#4f89c8" d="M 850.5,966.5 C 851.833,988.49 852.5,1010.82 852.5,1033.5C 852.167,1055.83 851.833,1078.17 851.5,1100.5C 808.139,1121.95 764.472,1142.61 720.5,1162.5C 720.333,1118.17 720.5,1073.83 721,1029.5C 764.426,1008.87 807.593,987.869 850.5,966.5 Z"/></g>
<g><path style="opacity:0.993" fill="#4f89c8" d="M 673.5,982.5 C 674.664,1015.33 674.831,1048.33 674,1081.5C 638.447,1098.53 602.614,1114.86 566.5,1130.5C 566.333,1098.16 566.5,1065.83 567,1033.5C 602.637,1016.6 638.137,999.597 673.5,982.5 Z"/></g>
<g><path style="opacity:0.981" fill="#4e89c8" d="M 348.5,1080.5 C 349.832,1089.98 350.499,1099.81 350.5,1110C 350.167,1119.83 349.833,1129.67 349.5,1139.5C 329.951,1148.44 310.284,1157.11 290.5,1165.5C 289.167,1146.83 289.167,1128.17 290.5,1109.5C 309.937,1099.81 329.271,1090.15 348.5,1080.5 Z"/></g>
<g><path style="opacity:0.985" fill="#000000" d="M 1238.5,1088.5 C 1239.83,1115.16 1240.5,1142.16 1240.5,1169.5C 1240.17,1196.5 1239.83,1223.5 1239.5,1250.5C 1184.66,1279.09 1129.66,1307.42 1074.5,1335.5C 1073.17,1279.83 1073.17,1224.17 1074.5,1168.5C 1129.26,1141.79 1183.92,1115.12 1238.5,1088.5 Z"/></g>
<g><path style="opacity:0.99" fill="#4f89c8" d="M 498.5,1107.5 C 499.833,1121.15 500.499,1135.15 500.5,1149.5C 500.333,1163.5 500.167,1177.5 500,1191.5C 474.333,1206.17 448.667,1220.83 423,1235.5C 422.333,1208.17 422.333,1180.83 423,1153.5C 448.338,1138.3 473.505,1122.97 498.5,1107.5 Z"/></g>
<g><path style="opacity:0.994" fill="#4f89c8" d="M 1038.5,1139.5 C 1039.5,1139.5 1040.5,1139.5 1041.5,1139.5C 1041.83,1189.84 1041.5,1240.17 1040.5,1290.5C 989.383,1317.06 938.049,1343.06 886.5,1368.5C 886.167,1317.83 886.5,1267.16 887.5,1216.5C 938.05,1191.06 988.384,1165.39 1038.5,1139.5 Z"/></g>
<g><path style="opacity:0.99" fill="#4f89c8" d="M 850.5,1148.5 C 851.833,1170.49 852.5,1192.82 852.5,1215.5C 852.167,1237.83 851.833,1260.17 851.5,1282.5C 808.167,1302.83 764.833,1323.17 721.5,1343.5C 720.333,1299.5 720.167,1255.5 721,1211.5C 764.426,1190.87 807.593,1169.87 850.5,1148.5 Z"/></g>
<g><path style="opacity:0.993" fill="#4f89c8" d="M 671.5,1166.5 C 672.5,1166.5 673.5,1166.5 674.5,1166.5C 674.667,1199.17 674.5,1231.84 674,1264.5C 638.418,1281.36 602.752,1298.03 567,1314.5C 566.167,1281.83 566.333,1249.16 567.5,1216.5C 602.502,1200.33 637.168,1183.66 671.5,1166.5 Z"/></g>
<g><path style="opacity:0.964" fill="#000000" d="M 348.5,1269.5 C 349.832,1279.14 350.499,1289.14 350.5,1299.5C 350.167,1309.5 349.833,1319.5 349.5,1329.5C 329.701,1338.74 309.701,1347.4 289.5,1355.5C 289.167,1336.82 289.5,1318.15 290.5,1299.5C 309.895,1289.47 329.228,1279.47 348.5,1269.5 Z"/></g>
<g><path style="opacity:0.985" fill="#000000" d="M 1238.5,1278.5 C 1239.83,1304.99 1240.5,1331.82 1240.5,1359C 1240.17,1385.83 1239.83,1412.67 1239.5,1439.5C 1184.66,1468.42 1129.66,1497.09 1074.5,1525.5C 1073.17,1469.83 1073.17,1414.17 1074.5,1358.5C 1129.36,1332.01 1184.02,1305.34 1238.5,1278.5 Z"/></g>
<g><path style="opacity:0.977" fill="#000000" d="M 498.5,1297.5 C 499.833,1311.15 500.499,1325.15 500.5,1339.5C 500.333,1353.5 500.167,1367.5 500,1381.5C 474.42,1395.37 448.92,1409.37 423.5,1423.5C 422.333,1396.84 422.167,1370.17 423,1343.5C 448.338,1328.3 473.505,1312.97 498.5,1297.5 Z"/></g>
<g><path style="opacity:0.984" fill="#000000" d="M 1038.5,1329.5 C 1039.5,1329.5 1040.5,1329.5 1041.5,1329.5C 1041.83,1379.84 1041.5,1430.17 1040.5,1480.5C 989.655,1506.42 938.655,1532.09 887.5,1557.5C 886.167,1507.17 886.167,1456.83 887.5,1406.5C 938.05,1381.06 988.384,1355.39 1038.5,1329.5 Z"/></g>
<g><path style="opacity:0.983" fill="#000000" d="M 850.5,1338.5 C 851.833,1360.32 852.5,1382.49 852.5,1405C 852.167,1427.17 851.833,1449.33 851.5,1471.5C 808.167,1492.17 764.833,1512.83 721.5,1533.5C 720.333,1489.17 720.167,1444.84 721,1400.5C 764.295,1379.91 807.462,1359.25 850.5,1338.5 Z"/></g>
<g><path style="opacity:0.978" fill="#000000" d="M 671.5,1356.5 C 672.5,1356.5 673.5,1356.5 674.5,1356.5C 674.667,1389.17 674.5,1421.84 674,1454.5C 638.445,1471.2 602.611,1487.2 566.5,1502.5C 566.167,1470.49 566.5,1438.49 567.5,1406.5C 602.502,1390.33 637.168,1373.66 671.5,1356.5 Z"/></g>
<g><path style="opacity:0.783" fill="#000000" d="M 2084.5,1473.5 C 2092.83,1473.5 2101.17,1473.5 2109.5,1473.5C 2109.5,1475.17 2109.5,1476.83 2109.5,1478.5C 2106.17,1478.5 2102.83,1478.5 2099.5,1478.5C 2099.5,1487.17 2099.5,1495.83 2099.5,1504.5C 2097.83,1504.5 2096.17,1504.5 2094.5,1504.5C 2094.5,1495.83 2094.5,1487.17 2094.5,1478.5C 2091.17,1478.5 2087.83,1478.5 2084.5,1478.5C 2084.5,1476.83 2084.5,1475.17 2084.5,1473.5 Z"/></g>
<g><path style="opacity:0.785" fill="#000000" d="M 2115.5,1473.5 C 2118.12,1473.23 2120.62,1473.56 2123,1474.5C 2125.47,1481.43 2128.47,1488.1 2132,1494.5C 2134.14,1487.76 2136.47,1481.09 2139,1474.5C 2142.06,1473.55 2145.22,1473.22 2148.5,1473.5C 2148.5,1483.83 2148.5,1494.17 2148.5,1504.5C 2146.17,1504.5 2143.83,1504.5 2141.5,1504.5C 2141.67,1498.16 2141.5,1491.82 2141,1485.5C 2139,1491.5 2137,1497.5 2135,1503.5C 2132.86,1504.77 2130.69,1504.77 2128.5,1503.5C 2125.71,1497.29 2123.21,1490.95 2121,1484.5C 2120.5,1491.16 2120.33,1497.83 2120.5,1504.5C 2118.83,1504.5 2117.17,1504.5 2115.5,1504.5C 2115.5,1494.17 2115.5,1483.83 2115.5,1473.5 Z"/></g>
<g><path style="opacity:0.963" fill="#000000" d="M 224.5,1657.5 C 253.5,1657.5 282.5,1657.5 311.5,1657.5C 344.7,1733.92 378.2,1810.25 412,1886.5C 449,1810.5 486,1734.5 523,1658.5C 550.426,1657.5 577.926,1657.17 605.5,1657.5C 605.5,1659.5 605.5,1661.5 605.5,1663.5C 596.016,1662.94 586.683,1663.77 577.5,1666C 570.875,1669.08 567.042,1674.25 566,1681.5C 564.43,1755.49 564.096,1829.49 565,1903.5C 564.645,1916.13 566.312,1928.46 570,1940.5C 576.33,1947.22 584.163,1950.55 593.5,1950.5C 602.022,1949.99 609.189,1946.65 615,1940.5C 616.044,1938.29 616.71,1935.95 617,1933.5C 617.667,1861.83 617.667,1790.17 617,1718.5C 608.508,1708.71 597.675,1704.05 584.5,1704.5C 584.5,1702.5 584.5,1700.5 584.5,1698.5C 620.833,1698.5 657.167,1698.5 693.5,1698.5C 693.5,1700.5 693.5,1702.5 693.5,1704.5C 684.263,1703.97 675.263,1705.14 666.5,1708C 664,1709.83 661.5,1711.67 659,1713.5C 658.251,1718.49 657.585,1723.49 657,1728.5C 656.333,1794.83 656.333,1861.17 657,1927.5C 657.76,1931.82 658.427,1936.15 659,1940.5C 660.598,1945.1 663.765,1947.93 668.5,1949C 676.781,1950.29 685.114,1950.79 693.5,1950.5C 693.5,1952.5 693.5,1954.5 693.5,1956.5C 622.833,1956.5 552.167,1956.5 481.5,1956.5C 481.5,1954.5 481.5,1952.5 481.5,1950.5C 491.58,1951.35 501.247,1949.85 510.5,1946C 516.548,1940.4 520.382,1933.57 522,1925.5C 523.644,1853.19 523.978,1780.86 523,1708.5C 483.882,1791.19 444.382,1873.69 404.5,1956C 401.621,1956.96 399.121,1956.46 397,1954.5C 359.607,1872.05 321.941,1789.71 284,1707.5C 283.333,1773.5 283.333,1839.5 284,1905.5C 283.959,1917.22 285.959,1928.55 290,1939.5C 293.143,1944.5 297.643,1947.66 303.5,1949C 311.119,1950.21 318.786,1950.71 326.5,1950.5C 326.5,1952.5 326.5,1954.5 326.5,1956.5C 292.5,1956.5 258.5,1956.5 224.5,1956.5C 224.5,1954.5 224.5,1952.5 224.5,1950.5C 234.713,1951.3 244.379,1949.47 253.5,1945C 258.719,1937.34 261.552,1928.84 262,1919.5C 262.667,1845.5 262.667,1771.5 262,1697.5C 260.815,1689.28 258.815,1681.28 256,1673.5C 254.542,1671.04 252.709,1668.87 250.5,1667C 241.934,1665.13 233.268,1663.97 224.5,1663.5C 224.5,1661.5 224.5,1659.5 224.5,1657.5 Z"/></g>
<g><path style="opacity:0.958" fill="#000000" d="M 804.5,1691.5 C 814.666,1691.88 824.666,1693.38 834.5,1696C 846.504,1700.42 858.337,1705.25 870,1710.5C 873.413,1709.54 876.246,1707.71 878.5,1705C 877.552,1704.52 876.552,1704.35 875.5,1704.5C 875.5,1702.5 875.5,1700.5 875.5,1698.5C 878.247,1698.81 880.914,1698.48 883.5,1697.5C 884.373,1695.59 885.373,1693.75 886.5,1692C 888.473,1691.5 890.473,1691.34 892.5,1691.5C 892.318,1693.59 892.652,1695.59 893.5,1697.5C 920.827,1698.33 948.161,1698.83 975.5,1699C 992.232,1700.01 1008.9,1701.67 1025.5,1704C 1035.81,1706.23 1044.31,1711.4 1051,1719.5C 1054.57,1725.74 1058.9,1731.4 1064,1736.5C 1066.22,1740.28 1067.89,1744.28 1069,1748.5C 1076.16,1776.77 1067.99,1799.27 1044.5,1816C 1033.52,1823.48 1021.52,1828.82 1008.5,1832C 1033.05,1864.89 1057.22,1898.05 1081,1931.5C 1088.36,1939.93 1097.52,1945.43 1108.5,1948C 1113.79,1949.16 1119.13,1949.99 1124.5,1950.5C 1124.5,1952.5 1124.5,1954.5 1124.5,1956.5C 1101.16,1956.83 1077.82,1956.5 1054.5,1955.5C 1026.41,1916.75 998.746,1877.75 971.5,1838.5C 966.445,1840.06 961.278,1841.06 956,1841.5C 953.207,1841.7 950.707,1841.03 948.5,1839.5C 947.073,1869.85 947.24,1900.19 949,1930.5C 950.961,1942.13 957.795,1948.63 969.5,1950C 974.823,1950.5 980.156,1950.67 985.5,1950.5C 985.5,1952.5 985.5,1954.5 985.5,1956.5C 948.833,1956.5 912.167,1956.5 875.5,1956.5C 875.5,1954.5 875.5,1952.5 875.5,1950.5C 884.635,1951.4 893.302,1949.9 901.5,1946C 907.077,1941.95 909.577,1936.45 909,1929.5C 909.667,1861.83 909.667,1794.17 909,1726.5C 909.79,1715.79 904.957,1709.12 894.5,1706.5C 894.167,1710.17 893.833,1713.83 893.5,1717.5C 894.308,1738.16 894.975,1758.83 895.5,1779.5C 894.022,1779.76 892.689,1779.43 891.5,1778.5C 884.661,1760.48 875.494,1743.82 864,1728.5C 839.379,1704.18 811.213,1699.01 779.5,1713C 765.364,1718.31 754.531,1727.48 747,1740.5C 728.247,1780.25 722.247,1821.92 729,1865.5C 733.022,1891.53 744.855,1913.37 764.5,1931C 790.586,1945.83 817.919,1948.5 846.5,1939C 860.543,1933.63 872.376,1925.13 882,1913.5C 886.333,1907.83 890.667,1902.17 895,1896.5C 897.45,1898.57 899.283,1901.07 900.5,1904C 884.113,1934.69 858.78,1953.69 824.5,1961C 753.005,1968.66 707.505,1937.83 688,1868.5C 680.128,1836.06 682.461,1804.4 695,1773.5C 700.463,1759.9 707.463,1747.23 716,1735.5C 719.833,1731.67 723.667,1727.83 727.5,1724C 745.252,1711.96 764.252,1702.29 784.5,1695C 791.257,1693.5 797.923,1692.34 804.5,1691.5 Z M 971.5,1711.5 C 987.982,1712.38 1002.82,1717.72 1016,1727.5C 1029.4,1746.87 1032.73,1767.87 1026,1790.5C 1018.83,1804.33 1008.33,1814.83 994.5,1822C 989.465,1824.59 984.132,1826.26 978.5,1827C 968.203,1828.23 957.87,1828.73 947.5,1828.5C 947.5,1791.17 947.5,1753.83 947.5,1716.5C 955.67,1715.07 963.67,1713.4 971.5,1711.5 Z"/></g>
<g><path style="opacity:0.957" fill="#000000" d="M 1210.5,1691.5 C 1234.46,1691.21 1256.13,1698.04 1275.5,1712C 1312.67,1740.84 1332,1779 1333.5,1826.5C 1333.5,1862.79 1322,1894.79 1299,1922.5C 1276.93,1946.53 1249.6,1960.2 1217,1963.5C 1171.52,1962.59 1136.52,1942.92 1112,1904.5C 1090.02,1862.69 1086.69,1819.36 1102,1774.5C 1118.36,1736.22 1146.19,1710.05 1185.5,1696C 1193.86,1693.83 1202.19,1692.33 1210.5,1691.5 Z M 1211.5,1704.5 C 1237.06,1705.27 1256.23,1716.6 1269,1738.5C 1279.98,1758.4 1286.31,1779.73 1288,1802.5C 1291.44,1834.71 1288.77,1866.38 1280,1897.5C 1263.17,1941.69 1232,1957.52 1186.5,1945C 1168.24,1937.74 1155.74,1924.91 1149,1906.5C 1137.4,1870.66 1133.74,1834 1138,1796.5C 1140.01,1774.45 1146.34,1753.79 1157,1734.5C 1170.71,1716.23 1188.87,1706.23 1211.5,1704.5 Z"/></g>
<g><path style="opacity:0.952" fill="#000000" d="M 1418.5,1691.5 C 1424.94,1692.06 1431.27,1693.23 1437.5,1695C 1450.74,1700.45 1464.07,1705.62 1477.5,1710.5C 1480.73,1709.27 1483.73,1707.61 1486.5,1705.5C 1488.36,1701.25 1490.03,1696.91 1491.5,1692.5C 1493.4,1691.53 1495.4,1691.2 1497.5,1691.5C 1497.5,1720.83 1497.5,1750.17 1497.5,1779.5C 1494.92,1779.92 1492.75,1779.25 1491,1777.5C 1489.74,1755.82 1481.57,1737.32 1466.5,1722C 1449.9,1708.1 1430.9,1702.77 1409.5,1706C 1400.09,1708.07 1392.93,1713.24 1388,1721.5C 1373.79,1741.64 1375.96,1759.81 1394.5,1776C 1402.21,1782.71 1410.21,1789.05 1418.5,1795C 1438,1807.25 1457.67,1819.25 1477.5,1831C 1496.89,1843.57 1508.39,1861.41 1512,1884.5C 1512.77,1919.07 1497.27,1943.24 1465.5,1957C 1447.16,1964.1 1428.5,1965.1 1409.5,1960C 1395.44,1954.72 1381.28,1949.88 1367,1945.5C 1364.78,1946.94 1362.78,1948.61 1361,1950.5C 1359.59,1954.73 1358.75,1959.06 1358.5,1963.5C 1356.5,1963.5 1354.5,1963.5 1352.5,1963.5C 1352.5,1934.5 1352.5,1905.5 1352.5,1876.5C 1354.5,1876.5 1356.5,1876.5 1358.5,1876.5C 1360.09,1887.6 1362.25,1898.6 1365,1909.5C 1369.61,1920.44 1376.77,1929.27 1386.5,1936C 1407.5,1949.96 1430.17,1953.62 1454.5,1947C 1466.93,1939.32 1475.43,1928.49 1480,1914.5C 1479.87,1898.06 1474.03,1883.89 1462.5,1872C 1433.23,1854.4 1404.23,1836.4 1375.5,1818C 1369.97,1812.8 1364.8,1807.3 1360,1801.5C 1356.8,1793.66 1352.8,1786.33 1348,1779.5C 1342.21,1750.86 1350.38,1727.03 1372.5,1708C 1386.47,1698.4 1401.81,1692.9 1418.5,1691.5 Z"/></g>
<g><path style="opacity:0.958" fill="#000000" d="M 1639.5,1691.5 C 1662.69,1691.06 1683.69,1697.56 1702.5,1711C 1740.78,1739.73 1760.45,1778.23 1761.5,1826.5C 1761.51,1879.33 1739.51,1919.83 1695.5,1948C 1640.45,1974.72 1592.29,1965.22 1551,1919.5C 1530.29,1893.04 1520.12,1862.88 1520.5,1829C 1522.3,1762.02 1554.63,1717.35 1617.5,1695C 1624.91,1693.39 1632.25,1692.23 1639.5,1691.5 Z M 1639.5,1704.5 C 1665.79,1705.05 1685.29,1716.72 1698,1739.5C 1708.24,1758.56 1714.24,1778.89 1716,1800.5C 1718.91,1828.72 1717.58,1856.72 1712,1884.5C 1707.9,1902.54 1699.73,1918.37 1687.5,1932C 1656.84,1956.31 1625.84,1956.64 1594.5,1933C 1586.28,1925.41 1580.45,1916.24 1577,1905.5C 1563.31,1862.14 1560.97,1818.14 1570,1773.5C 1573.8,1753.07 1582.96,1735.57 1597.5,1721C 1609.85,1711.06 1623.85,1705.56 1639.5,1704.5 Z"/></g>
<g><path style="opacity:0.962" fill="#000000" d="M 1755.5,1698.5 C 1817.17,1698.5 1878.83,1698.5 1940.5,1698.5C 1942.91,1716.82 1945.25,1735.15 1947.5,1753.5C 1943.12,1753.83 1938.78,1753.49 1934.5,1752.5C 1930.8,1742.77 1926.3,1733.44 1921,1724.5C 1915.38,1716.86 1907.88,1712.7 1898.5,1712C 1874.5,1711.5 1850.5,1711.33 1826.5,1711.5C 1826.5,1746.5 1826.5,1781.5 1826.5,1816.5C 1842.5,1816.67 1858.5,1816.5 1874.5,1816C 1880.67,1815.16 1886.51,1813.33 1892,1810.5C 1897.66,1800.52 1901.5,1789.85 1903.5,1778.5C 1905.5,1778.5 1907.5,1778.5 1909.5,1778.5C 1909.5,1807.5 1909.5,1836.5 1909.5,1865.5C 1907.5,1865.5 1905.5,1865.5 1903.5,1865.5C 1902.48,1851.63 1896.81,1840.13 1886.5,1831C 1866.55,1829.56 1846.55,1829.06 1826.5,1829.5C 1826.33,1858.5 1826.5,1887.5 1827,1916.5C 1827.56,1924.55 1828.56,1932.55 1830,1940.5C 1831.6,1945.1 1834.76,1947.93 1839.5,1949C 1847.79,1950.18 1856.13,1950.68 1864.5,1950.5C 1864.5,1952.5 1864.5,1954.5 1864.5,1956.5C 1828.17,1956.5 1791.83,1956.5 1755.5,1956.5C 1755.5,1954.5 1755.5,1952.5 1755.5,1950.5C 1764.72,1951.13 1773.38,1949.3 1781.5,1945C 1783.71,1943.13 1785.54,1940.96 1787,1938.5C 1788.15,1901.04 1788.65,1863.54 1788.5,1826C 1788.33,1790.17 1788.17,1754.33 1788,1718.5C 1779.53,1708.52 1768.7,1703.85 1755.5,1704.5C 1755.5,1702.5 1755.5,1700.5 1755.5,1698.5 Z"/></g>
<g><path style="opacity:0.94" fill="#000000" d="M 1977.5,1701.5 C 2043.83,1701.5 2110.17,1701.5 2176.5,1701.5C 2178.11,1720.51 2179.77,1739.51 2181.5,1758.5C 2178.17,1758.5 2174.83,1758.5 2171.5,1758.5C 2171.63,1733.81 2159.63,1719.31 2135.5,1715C 2121.5,1714.5 2107.5,1714.33 2093.5,1714.5C 2093.33,1789.83 2093.5,1865.17 2094,1940.5C 2093.77,1945.9 2096.27,1949.07 2101.5,1950C 2109.01,1952.13 2116.68,1952.97 2124.5,1952.5C 2123.51,1933.46 2132.35,1922.12 2151,1918.5C 2166.23,1918.59 2176.56,1925.59 2182,1939.5C 2184.41,1956.18 2177.91,1967.68 2162.5,1974C 2148.18,1977 2136.84,1972.5 2128.5,1960.5C 2092.51,1959.5 2056.51,1959.17 2020.5,1959.5C 2020.5,1957.17 2020.5,1954.83 2020.5,1952.5C 2032.54,1954.53 2043.04,1951.53 2052,1943.5C 2052.33,1941.5 2052.67,1939.5 2053,1937.5C 2054.48,1863.19 2054.98,1788.86 2054.5,1714.5C 2039.5,1714.33 2024.5,1714.5 2009.5,1715C 1995.49,1719.34 1986.66,1728.51 1983,1742.5C 1981.93,1747.81 1981.1,1753.14 1980.5,1758.5C 1977.5,1758.5 1974.5,1758.5 1971.5,1758.5C 1973.44,1739.48 1975.44,1720.48 1977.5,1701.5 Z M 2149.5,1924.5 C 2162.43,1924.7 2171.26,1930.7 2176,1942.5C 2177.38,1954.9 2172.21,1963.4 2160.5,1968C 2140.7,1969.53 2131.53,1960.36 2133,1940.5C 2135.75,1932.25 2141.25,1926.91 2149.5,1924.5 Z M 2154.5,1934.5 C 2156.68,1935.1 2158.85,1935.77 2161,1936.5C 2162.14,1939.53 2161.31,1941.69 2158.5,1943C 2155.52,1943.5 2152.52,1943.66 2149.5,1943.5C 2149.5,1940.83 2149.5,1938.17 2149.5,1935.5C 2151.41,1935.78 2153.08,1935.45 2154.5,1934.5 Z"/></g>
<g><path style="opacity:0.837" fill="#000000" d="M 2143.5,1930.5 C 2149.51,1930.33 2155.51,1930.5 2161.5,1931C 2163.29,1931.78 2164.79,1932.95 2166,1934.5C 2166.98,1938.9 2166.48,1943.07 2164.5,1947C 2162.91,1947.86 2161.25,1948.53 2159.5,1949C 2162.74,1952.82 2165.74,1956.82 2168.5,1961C 2166.17,1961.67 2163.83,1961.67 2161.5,1961C 2157.92,1957.32 2155.25,1953.16 2153.5,1948.5C 2152.17,1948.5 2150.83,1948.5 2149.5,1948.5C 2149.5,1952.83 2149.5,1957.17 2149.5,1961.5C 2147.5,1961.5 2145.5,1961.5 2143.5,1961.5C 2143.5,1951.17 2143.5,1940.83 2143.5,1930.5 Z M 2154.5,1934.5 C 2153.08,1935.45 2151.41,1935.78 2149.5,1935.5C 2149.5,1938.17 2149.5,1940.83 2149.5,1943.5C 2152.52,1943.66 2155.52,1943.5 2158.5,1943C 2161.31,1941.69 2162.14,1939.53 2161,1936.5C 2158.85,1935.77 2156.68,1935.1 2154.5,1934.5 Z"/></g>
<g><path style="opacity:0.964" fill="#000000" d="M 203.5,1999.5 C 246.833,1999.5 290.167,1999.5 333.5,1999.5C 333.5,2003.17 333.5,2006.83 333.5,2010.5C 323.662,2009.38 314.662,2011.54 306.5,2017C 301.268,2023.28 298.768,2030.45 299,2038.5C 302.648,2055.78 307.315,2072.78 313,2089.5C 334.946,2151.06 356.612,2212.73 378,2274.5C 395.931,2220.45 413.098,2166.12 429.5,2111.5C 425.495,2100.32 420.995,2089.32 416,2078.5C 412.737,2061.43 406.737,2045.43 398,2030.5C 388.355,2018.43 375.855,2011.76 360.5,2010.5C 360.5,2006.83 360.5,2003.17 360.5,1999.5C 405.833,1999.5 451.167,1999.5 496.5,1999.5C 496.5,2003.17 496.5,2006.83 496.5,2010.5C 485.595,2008.88 475.595,2011.05 466.5,2017C 459.954,2025.08 457.787,2034.25 460,2044.5C 462.335,2058.17 466.668,2071.17 473,2083.5C 494.272,2146.65 515.939,2209.65 538,2272.5C 562.137,2207.76 586.47,2143.09 611,2078.5C 614.468,2067.63 617.468,2056.63 620,2045.5C 623.546,2035.97 621.712,2027.8 614.5,2021C 608.173,2018.01 601.84,2015.01 595.5,2012C 591.249,2010.81 586.915,2010.31 582.5,2010.5C 582.5,2006.83 582.5,2003.17 582.5,1999.5C 617.833,1999.5 653.167,1999.5 688.5,1999.5C 688.5,2003.17 688.5,2006.83 688.5,2010.5C 676.776,2010.86 666.443,2014.86 657.5,2022.5C 653.814,2026.35 650.314,2030.35 647,2034.5C 643.144,2050.07 638.477,2065.4 633,2080.5C 598.137,2174.09 563.47,2267.76 529,2361.5C 525,2362.83 521,2362.83 517,2361.5C 492.106,2290.72 466.94,2220.05 441.5,2149.5C 417.898,2220.31 394.898,2291.31 372.5,2362.5C 366.697,2363.09 361.197,2362.42 356,2360.5C 318.527,2251.08 280.86,2141.75 243,2032.5C 233.591,2019.21 220.758,2011.71 204.5,2010C 203.544,2006.61 203.211,2003.11 203.5,1999.5 Z"/></g>
<g><path style="opacity:0.963" fill="#000000" d="M 1447.5,2065.5 C 1514.95,2061.79 1562.78,2090.46 1591,2151.5C 1607.33,2196.5 1605.67,2240.83 1586,2284.5C 1569.64,2311.09 1547.81,2331.93 1520.5,2347C 1483.66,2364.72 1445.99,2366.72 1407.5,2353C 1354.68,2330.16 1325.85,2290 1321,2232.5C 1317.64,2202.42 1321.64,2173.42 1333,2145.5C 1348.5,2118 1370,2096.5 1397.5,2081C 1413.42,2073.03 1430.09,2067.86 1447.5,2065.5 Z M 1451.5,2079.5 C 1504.18,2081.66 1536.01,2108.66 1547,2160.5C 1549.48,2171.04 1551.15,2181.7 1552,2192.5C 1552.87,2212.53 1552.53,2232.53 1551,2252.5C 1549.46,2268.01 1545.12,2282.68 1538,2296.5C 1532.71,2303.46 1527.04,2310.13 1521,2316.5C 1495.53,2342.86 1465.36,2350.03 1430.5,2338C 1417.99,2332.49 1406.82,2324.99 1397,2315.5C 1369.49,2271.82 1360.49,2224.48 1370,2173.5C 1375.26,2141.81 1389.76,2115.31 1413.5,2094C 1425.02,2085.89 1437.69,2081.05 1451.5,2079.5 Z"/></g>
<g><path style="opacity:0.956" fill="#000000" d="M 2027.5,2065.5 C 2050.37,2064.37 2072.37,2068.21 2093.5,2077C 2101.13,2078.65 2108.8,2078.81 2116.5,2077.5C 2118.76,2073.8 2120.09,2069.8 2120.5,2065.5C 2123.17,2065.5 2125.83,2065.5 2128.5,2065.5C 2128.5,2098.17 2128.5,2130.83 2128.5,2163.5C 2125.83,2163.5 2123.17,2163.5 2120.5,2163.5C 2119.66,2144.81 2114.49,2127.48 2105,2111.5C 2101.13,2107.3 2096.97,2103.47 2092.5,2100C 2080.92,2094.88 2069.59,2089.21 2058.5,2083C 2041.57,2077.41 2026.24,2080.41 2012.5,2092C 2002.27,2100.71 1995.61,2111.54 1992.5,2124.5C 1993.18,2131.38 1995.35,2137.71 1999,2143.5C 2007.58,2154.08 2017.41,2163.25 2028.5,2171C 2052.03,2185.6 2076.36,2198.94 2101.5,2211C 2127.38,2224.56 2143.21,2245.73 2149,2274.5C 2149.41,2312.85 2131.91,2339.35 2096.5,2354C 2084.17,2359.12 2071.34,2361.96 2058,2362.5C 2046.19,2360.26 2034.36,2358.09 2022.5,2356C 2007.48,2351.55 1992.32,2347.72 1977,2344.5C 1974.62,2344.26 1972.78,2345.09 1971.5,2347C 1970.01,2352.08 1969.01,2357.25 1968.5,2362.5C 1965.5,2362.5 1962.5,2362.5 1959.5,2362.5C 1959.5,2329.5 1959.5,2296.5 1959.5,2263.5C 1962.78,2263.22 1965.94,2263.55 1969,2264.5C 1973.72,2314.21 2001.05,2340.55 2051,2343.5C 2070.7,2343.48 2087.7,2336.81 2102,2323.5C 2116.39,2296.91 2111.23,2275.08 2086.5,2258C 2052.59,2241.38 2019.93,2222.72 1988.5,2202C 1978.89,2193.39 1970.39,2183.89 1963,2173.5C 1952.31,2143.4 1956.31,2115.4 1975,2089.5C 1989.87,2075.65 2007.37,2067.65 2027.5,2065.5 Z"/></g>
<g><path style="opacity:0.968" fill="#000000" d="M 645.5,2069.5 C 693.505,2069.17 741.505,2069.5 789.5,2070.5C 849.189,2142.35 908.689,2214.35 968,2286.5C 968.958,2224.15 968.625,2161.81 967,2099.5C 964.711,2088.54 958.211,2081.38 947.5,2078C 940.533,2077 933.533,2076.5 926.5,2076.5C 926.5,2074.17 926.5,2071.83 926.5,2069.5C 1003.5,2069.33 1080.5,2069.5 1157.5,2070C 1193.29,2071.36 1226.96,2080.36 1258.5,2097C 1282.39,2112.56 1298.23,2134.06 1306,2161.5C 1316.91,2199.08 1315.24,2236.08 1301,2272.5C 1277.89,2321.16 1239.39,2348.33 1185.5,2354C 1130.52,2355.44 1075.52,2355.94 1020.5,2355.5C 1020.5,2352.5 1020.5,2349.5 1020.5,2346.5C 1031.74,2347.72 1042.41,2345.88 1052.5,2341C 1055.96,2335.62 1058.46,2329.78 1060,2323.5C 1061.64,2251.86 1061.98,2180.19 1061,2108.5C 1059.54,2085.38 1047.21,2074.71 1024,2076.5C 1015.97,2076.5 1008.14,2077.67 1000.5,2080C 991.984,2085.53 987.484,2093.37 987,2103.5C 986.5,2189.83 986.333,2276.17 986.5,2362.5C 983.753,2362.81 981.086,2362.48 978.5,2361.5C 915.522,2285.35 852.355,2209.35 789,2133.5C 788.03,2195.86 788.363,2258.19 790,2320.5C 791.021,2327.77 793.188,2334.6 796.5,2341C 807.325,2345.75 818.658,2347.58 830.5,2346.5C 830.5,2349.5 830.5,2352.5 830.5,2355.5C 768.833,2355.5 707.167,2355.5 645.5,2355.5C 645.5,2352.5 645.5,2349.5 645.5,2346.5C 657.518,2347.66 668.851,2345.5 679.5,2340C 682.055,2338.45 683.888,2336.28 685,2333.5C 686.124,2327.9 686.79,2322.23 687,2316.5C 687.667,2248.17 687.667,2179.83 687,2111.5C 687.892,2094.09 680.059,2082.93 663.5,2078C 657.555,2076.84 651.555,2076.34 645.5,2076.5C 645.5,2074.17 645.5,2071.83 645.5,2069.5 Z M 736.5,2086.5 C 747.012,2089.02 755.512,2094.68 762,2103.5C 764.911,2106.99 767.578,2110.66 770,2114.5C 770.96,2185.52 770.627,2256.52 769,2327.5C 767.09,2337.57 760.923,2343.57 750.5,2345.5C 748.058,2344.96 745.725,2344.13 743.5,2343C 739.984,2340.48 736.817,2337.65 734,2334.5C 733.333,2256.5 733.333,2178.5 734,2100.5C 734.346,2095.73 735.179,2091.06 736.5,2086.5 Z M 1140.5,2087.5 C 1185.25,2085.33 1220.41,2102.33 1246,2138.5C 1262.36,2170.33 1267.69,2204 1262,2239.5C 1254.34,2295.16 1222.84,2327.32 1167.5,2336C 1146.73,2337.2 1126.06,2336.37 1105.5,2333.5C 1105.17,2253.83 1105.5,2174.16 1106.5,2094.5C 1117.85,2091.63 1129.19,2089.3 1140.5,2087.5 Z"/></g>
<g><path style="opacity:0.962" fill="#000000" d="M 1563.5,2069.5 C 1600.83,2069.5 1638.17,2069.5 1675.5,2069.5C 1675.5,2071.83 1675.5,2074.17 1675.5,2076.5C 1667.38,2076.78 1659.38,2077.95 1651.5,2080C 1648.04,2085.3 1646.87,2091.14 1648,2097.5C 1650.49,2108.47 1652.83,2119.47 1655,2130.5C 1673.33,2183.5 1691.67,2236.5 1710,2289.5C 1723.89,2245.45 1737.39,2201.28 1750.5,2157C 1744.41,2141.06 1738.91,2124.89 1734,2108.5C 1729.91,2100.64 1725.57,2092.97 1721,2085.5C 1713.95,2079.43 1705.78,2076.43 1696.5,2076.5C 1696.5,2074.17 1696.5,2071.83 1696.5,2069.5C 1734.5,2069.5 1772.5,2069.5 1810.5,2069.5C 1810.5,2071.83 1810.5,2074.17 1810.5,2076.5C 1800.93,2076.25 1791.6,2077.58 1782.5,2080.5C 1780.5,2087.35 1780,2094.35 1781,2101.5C 1782.82,2112.61 1785.16,2123.61 1788,2134.5C 1805.95,2185.02 1824.28,2235.35 1843,2285.5C 1862.14,2233.09 1881.47,2180.76 1901,2128.5C 1902.87,2118.81 1904.87,2109.14 1907,2099.5C 1909.96,2087.77 1905.46,2080.6 1893.5,2078C 1887.83,2077.47 1882.16,2076.97 1876.5,2076.5C 1876.5,2074.17 1876.5,2071.83 1876.5,2069.5C 1905.84,2069.17 1935.17,2069.5 1964.5,2070.5C 1963.75,2072.33 1962.75,2074 1961.5,2075.5C 1955.09,2076.68 1948.76,2078.18 1942.5,2080C 1936.44,2084.72 1932.94,2090.89 1932,2098.5C 1898.84,2185.63 1865.84,2272.97 1833,2360.5C 1830.93,2361.13 1828.76,2361.47 1826.5,2361.5C 1824.04,2361.41 1821.87,2360.74 1820,2359.5C 1800.97,2300.73 1781.64,2242.06 1762,2183.5C 1743.67,2242.5 1725.33,2301.5 1707,2360.5C 1701.93,2361.47 1696.76,2361.8 1691.5,2361.5C 1666.64,2288.09 1641.47,2214.76 1616,2141.5C 1609.91,2122.55 1601.91,2104.55 1592,2087.5C 1584.74,2078.34 1575.24,2074.68 1563.5,2076.5C 1563.5,2074.17 1563.5,2071.83 1563.5,2069.5 Z"/></g>
<g><path style="opacity:0.793" fill="#000000" d="M 2131.5,2334.5 C 2139.83,2334.5 2148.17,2334.5 2156.5,2334.5C 2156.5,2336.17 2156.5,2337.83 2156.5,2339.5C 2153.17,2339.5 2149.83,2339.5 2146.5,2339.5C 2146.5,2347.83 2146.5,2356.17 2146.5,2364.5C 2144.83,2364.5 2143.17,2364.5 2141.5,2364.5C 2141.5,2356.17 2141.5,2347.83 2141.5,2339.5C 2138.17,2339.5 2134.83,2339.5 2131.5,2339.5C 2131.5,2337.83 2131.5,2336.17 2131.5,2334.5 Z"/></g>
<g><path style="opacity:0.836" fill="#000000" d="M 2161.5,2334.5 C 2164.45,2334.22 2167.28,2334.56 2170,2335.5C 2172.36,2342.08 2175.19,2348.41 2178.5,2354.5C 2181.24,2347.96 2183.57,2341.29 2185.5,2334.5C 2188.5,2334.5 2191.5,2334.5 2194.5,2334.5C 2194.5,2344.5 2194.5,2354.5 2194.5,2364.5C 2192.5,2364.5 2190.5,2364.5 2188.5,2364.5C 2188.67,2358.49 2188.5,2352.49 2188,2346.5C 2186.2,2352.24 2184.2,2357.91 2182,2363.5C 2179.67,2364.83 2177.33,2364.83 2175,2363.5C 2172.14,2357.25 2169.47,2350.91 2167,2344.5C 2166.5,2351.16 2166.33,2357.83 2166.5,2364.5C 2164.83,2364.5 2163.17,2364.5 2161.5,2364.5C 2161.5,2354.5 2161.5,2344.5 2161.5,2334.5 Z"/></g>
</svg>
